StickNoBills_final.sfdir
StartChar: exclam
Encoding: 33 33 100
Width: 440
VWidth: 0
Flags: MW
LayerCount: 2
Back
Fore
SplineSet
115 166 m 25
 244 166 l 25
 244 700 l 29
 115 700 l 25
 115 166 l 25
102.537109375 53.3095703125 m 0
 102.537109375 95.39453125 135.762695312 128.620117188 177.84765625 128.620117188 c 0
 219.932617188 128.620117188 253.157226562 95.39453125 253.157226562 53.3095703125 c 0
 253.157226562 11.224609375 219.932617188 -22 177.84765625 -22 c 0
 135.762695312 -22 102.537109375 11.224609375 102.537109375 53.3095703125 c 0
EndSplineSet
Validated: 524297
EndChar
StartChar: dollar
Encoding: 36 36 95
Width: 1024
VWidth: 0
Flags: M
LayerCount: 2
Back
Fore
SplineSet
548 757 m 25
 472 757 l 25
 472 699 l 17
 381 684 308 605 308 506 c 0
 308 399 372 348 473 312 c 9
 473 136 l 17
 442.533300445 147.404472948 424.606340876 168.923051276 424 214 c 9
 285 187 l 17
 295 139 307 101 345 64 c 24
 385 24 423 11 473 0 c 9
 473 -53 l 25
 548 -53 l 25
 548 0 l 17
 665 19 733 123 733 224 c 0
 733 331 652 391 548 425 c 9
 548 562 l 17
 571.227893577 542.16590785 574.776062317 532.3436261 577 502 c 9
 713 528 l 17
 712 561 692 609 656 646 c 24
 623 680 589 692 548 698 c 9
 548 757 l 25
EndSplineSet
Validated: 524297
EndChar
StartChar: comma
Encoding: 44 44 47
Width: 460
VWidth: 0
Flags: MW
LayerCount: 2
Back
Fore
SplineSet
199 -23 m 5
 72 -23 l 5
 109 129 l 5
 236 129 l 5
 199 -23 l 5
EndSplineSet
Validated: 1
EndChar
StartChar: period
Encoding: 46 46 42
Width: 167
VWidth: 0
Flags: MW
LayerCount: 2
Back
Fore
SplineSet
2.537109375 53.3095703125 m 4
 2.537109375 95.39453125 35.7626953125 128.620117188 77.84765625 128.620117188 c 4
 119.932617188 128.620117188 153.157226562 95.39453125 153.157226562 53.3095703125 c 4
 153.157226562 11.224609375 119.932617188 -22 77.84765625 -22 c 4
 35.7626953125 -22 2.537109375 11.224609375 2.537109375 53.3095703125 c 4
EndSplineSet
Validated: 1
EndChar
StartChar: slash
Encoding: 47 47 70
Width: 460
VWidth: 0
Flags: MW
LayerCount: 2
Back
Fore
SplineSet
72 -23 m 29
 199 -23 l 29
 373 716 l 29
 247 716 l 29
 72 -23 l 29
EndSplineSet
Validated: 9
EndChar
StartChar: one
Encoding: 49 49 30
Width: 311
VWidth: 0
Flags: HMW
LayerCount: 2
Back
Fore
SplineSet
106 700.666992188 m 25
 106 499 l 1
 101 499 l 1
 45.46875 444 l 1
 45.46875 645 l 1
 101 700.666992188 l 1
 106 700.666992188 l 25
EndSplineSet
Refer: 31 -1 N 1 0 0 1 60 -0.333008 2
Validated: 5
EndChar
StartChar: two
Encoding: 50 50 32
Width: 515
VWidth: 0
Flags: MW
LayerCount: 2
Back
Fore
SplineSet
264 578 m 9
 264 704 l 17
 424 708 471.205078125 574.002929688 472 500 c 0
 473.150390625 392.861328125 411 364 352 319 c 0
 280.801757812 264.696289062 247 235 210 186 c 9
 70 186 l 17
 135 306 232 363 262 388 c 0
 305.51171875 424.259765625 353.097607375 437.998502538 354 500 c 0
 354.7421875 550.994140625 320 576 264 578 c 9
209.083007812 702.916992188 m 0
 113.786132812 690.916992188 52 608 43 524 c 0
 161 499 l 0
 161 561.030273438 208.552734375 576.678710938 209.092773438 576.678710938 c 0
 209.096679688 576.678710938 209.09765625 576.677734375 209.09765625 576.676757812 c 0
 209.09765625 576.674804688 209.092773438 576.671875 209.083007812 576.666992188 c 0
 209.083007812 702.916992188 l 0
464 127 m 5
 464 0 l 5
 63 0 l 5
 63 127 l 5
 464 127 l 5
EndSplineSet
Validated: 37
EndChar
StartChar: four
Encoding: 52 52 34
Width: 527
VWidth: 0
Flags: HMW
LayerCount: 2
Back
Fore
SplineSet
238 272 m 25
 238 144.666992188 l 25
 48 145 l 25
 48 272 l 25
 238 598 l 25
 238 351 l 25
 192 272 l 25
 238 272 l 25
EndSplineSet
Refer: 33 -1 N 0.410224 0 0 1 303.296 145 2
Refer: 31 -1 N 1 0 0 1 254 0 2
Validated: 5
EndChar
StartChar: equal
Encoding: 61 61 39
Width: 396
VWidth: 0
Flags: MW
LayerCount: 2
Back
Fore
SplineSet
371 507 m 5
 371 380 l 5
 30 380 l 5
 30 507 l 5
 371 507 l 5
371 327 m 5
 371 200 l 5
 30 200 l 5
 30 327 l 5
 371 327 l 5
EndSplineSet
Validated: 1
EndChar
StartChar: A
Encoding: 65 65 0
Width: 577
VWidth: 0
Flags: MW
LayerCount: 2
Back
Fore
SplineSet
237 700 m 25
 376 700 l 25
 527 0 l 25
 390 0 l 25
 370 85 l 25
 276 85 l 25
 306 224 l 25
 340 224 l 25
 237 700 l 25
189 582 m 29
 206 582 l 29
 267 302 l 29
 201 0 l 29
 63 0 l 29
 189 582 l 29
EndSplineSet
Validated: 1
EndChar
StartChar: C
Encoding: 67 67 12
Width: 535
VWidth: 0
Flags: MW
LayerCount: 2
Back
Fore
SplineSet
209.000976562 -7.625 m 3
 65.7041015625 -7.625 11.7509765625 119.125 11.7509765625 179.125 c 0
 153.250976562 179.125 l 3
 153.250976562 174.125 163.000976562 134.135742188 209.000976562 133.625 c 0
 209.000976562 -7.625 l 3
209.000976562 704.875 m 3
 209.000976562 563.625 l 0
 163.000976562 563.114257812 153.250976562 523.125 153.250976562 518.125 c 3
 11.7509765625 518.125 l 0
 11.7509765625 578.125 65.7041015625 704.875 209.000976562 704.875 c 3
153.125976562 523.75 m 1
 153.125976562 176 l 1
 12.1259765625 176 l 1
 12.1259765625 523.75 l 1
 153.125976562 523.75 l 1
263.625976562 132.333007812 m 17
 263.625976562 132.333007812 295.5703125 140.889648438 305.625976562 164 c 0
 310.979492188 176.302734375 310.625976562 187 310.625976562 201 c 26
 310.625976562 231 l 25
 448.625976562 180 l 17
 448.625976562 84.48046875 356.334960938 -7.6669921875 263.625976562 -7.6669921875 c 9
 263.625976562 132.333007812 l 17
263.625976562 563.666992188 m 9
 263.625976562 704.666992188 l 17
 356.334960938 704.666992188 448.625976562 611.51953125 448.625976562 516 c 9
 310.625976562 465 l 25
 310.625976562 495 l 26
 310.625976562 509 310.979492188 519.697265625 305.625976562 532 c 0
 295.5703125 555.110351562 263.625976562 563.666992188 263.625976562 563.666992188 c 9
EndSplineSet
Validated: 37
EndChar
StartChar: H
Encoding: 72 72 21
Width: 501
VWidth: 0
Flags: HMW
LayerCount: 2
Back
Fore
SplineSet
310 421 m 1
 310 283 l 1
 264 283 l 1
 264 421 l 1
 310 421 l 1
209 421 m 5
 209 283 l 5
 163 283 l 5
 163 421 l 5
 209 421 l 5
EndSplineSet
Refer: 2 -1 N 1 0 0 1 249 0 2
Refer: 2 -1 S 1 0 0 1 -5 0 2
Validated: 5
EndChar
StartChar: K
Encoding: 75 75 7
Width: 510
VWidth: 0
Flags: HMW
LayerCount: 2
Back
Fore
SplineSet
350.498046875 700 m 1
 489.498046875 700 l 1
 403.498046875 409 l 1
 493.498046875 0 l 25
 355.498046875 0 l 25
 263.498046875 409 l 1
 350.498046875 700 l 1
EndSplineSet
Refer: 2 -1 N 1 0 0 1 24.4982 0 2
Validated: 1
EndChar
StartChar: N
Encoding: 78 78 29
Width: 599
VWidth: 0
Flags: MW
LayerCount: 2
Back
Fore
SplineSet
73 697.666992188 m 1
 188 697.666992188 l 1
 490.298828125 167 l 1
 490 -3 l 1
 423 -3 l 5
 73 619 l 1
 73 697.666992188 l 1
490 698 m 1
 490 293 l 1
 482 293 l 1
 348.595703125 530 l 1
 349 698 l 1
 490 698 l 1
73 -3 m 1
 73 491 l 1
 81 491 l 1
 214.404296875 254 l 1
 214 -3 l 1
 73 -3 l 1
EndSplineSet
Validated: 1
EndChar
StartChar: Q
Encoding: 81 81 22
Width: 602
VWidth: 0
Flags: HMW
LayerCount: 2
Back
Fore
SplineSet
330.1875 65.9267578125 m 1
 440.1875 149.926757812 l 1
 506.59375 51.6318359375 l 1
 397.796875 -29.3681640625 l 5
 330.1875 65.9267578125 l 1
EndSplineSet
Refer: 13 -1 N -1 0 0 1 477.375 0 2
Refer: 13 -1 N 1 0 0 1 -4.625 0 2
Validated: 21
EndChar
StartChar: R
Encoding: 82 82 10
Width: 526
VWidth: 0
Flags: HMW
LayerCount: 2
Back
Fore
SplineSet
265 286 m 9
 265 346 l 25
 426 352 l 17
 462.239257812 324.913085938 489.538085938 267.135742188 490 217 c 10
 492 0 l 25
 366 0 l 25
 366 178 l 18
 366 258.6171875 336.244140625 285.143554688 265 286 c 9
265 411 m 1
 278 411 l 18
 338.034179688 411 364 446.702148438 364 488 c 0
 364 535.646484375 326.698242188 567 278 567 c 10
 265 567 l 1
 265 700 l 17
 415 700 491 616 491 496 c 3
 491 374 422 318 265 318 c 1
 265 346 l 1
 265 411 l 1
EndSplineSet
Refer: 2 -1 S 1 0 0 1 24 -2 2
Validated: 5
EndChar
StartChar: asciicircum
Encoding: 94 94 108
Width: 1024
VWidth: 0
Flags: MW
LayerCount: 2
Back
Fore
SplineSet
133.400390625 511.400390625 m 25
 229 512.599609375 l 25
 285.400390625 649.799804688 l 29
 352.799804688 513.799804688 l 25
 455.599609375 515.799804688 l 25
 329.400390625 761.200195312 l 25
 234.200195312 761.200195312 l 25
 133.400390625 511.400390625 l 25
EndSplineSet
Validated: 524297
EndChar
StartChar: e
Encoding: 101 101 62
Width: 458
VWidth: 0
Flags: HMW
LayerCount: 2
Back
Fore
SplineSet
398 382 m 29
 398 213 l 29
 176 213 l 29
 176 318 l 29
 298 318 l 29
 298 344 l 29
 398 382 l 29
EndSplineSet
Refer: 78 99 S 1 0 0 1 0 0 2
Validated: 5
EndChar
StartChar: g
Encoding: 103 103 60
Width: 437
VWidth: 0
Flags: HMW
LayerCount: 2
Back
Fore
SplineSet
226.85546875 -181.416992188 m 1
 226.85546875 -181.296875 l 1
 325.786132812 -180.352539062 374.73046875 -85.337890625 374.73046875 -43 c 1
 374.7109375 -43 l 1
 371 515.6875 l 5
 334.047851562 515.130859375 301.096679688 515.45703125 264.14453125 515.6875 c 5
 264 -43 l 1
 264 -47.12109375 257.446289062 -74.474609375 225.368164062 -74.8359375 c 1
 225.368164062 -75 l 1
 50.85546875 -75 l 1
 50.85546875 -181.272460938 l 1
 226.85546875 -181.416992188 l 1
EndSplineSet
Refer: 52 -1 N 0.985439 0 0 1.00209 -35.5096 -1.0701 2
Refer: 52 -1 N -1.01475 0 0 1.00076 450.337 -0.382767 2
Validated: 53
EndChar
StartChar: i
Encoding: 105 105 61
Width: 251
VWidth: 0
Flags: MW
LayerCount: 2
Back
Fore
SplineSet
69.14453125 516 m 1
 106.096679688 515.76953125 143.047851562 515.443359375 180 516 c 1
 179.85546875 0 l 1
 69 0 l 1
 69.14453125 516 l 1
59.7822265625 635.83984375 m 0
 59.7822265625 670.868164062 88.9716796875 700.057617188 124 700.057617188 c 0
 159.028320312 700.057617188 188.217773438 670.868164062 188.217773438 635.83984375 c 0
 188.217773438 600.8125 159.028320312 571.622070312 124 571.622070312 c 0
 88.9716796875 571.622070312 59.7822265625 600.8125 59.7822265625 635.83984375 c 0
EndSplineSet
Validated: 33
EndChar
StartChar: yen
Encoding: 165 165 102
Width: 1024
VWidth: 0
Flags: M
LayerCount: 2
Back
Fore
SplineSet
478 698 m 1049,0,-1
341 698 m 25,1,-1
 478 698 l 25,2,-1
 541 485 l 25,3,-1
 601 698 l 25,4,-1
 738 698 l 25,5,-1
 650 408 l 25,6,-1
 761 408 l 25,7,-1
 761 350 l 25,8,-1
 633 350 l 25,9,-1
 619 295 l 25,10,-1
 761 295 l 25,11,-1
 761 236 l 25,12,-1
 608 236 l 25,13,-1
 608 0 l 25,14,-1
 471 0 l 25,15,-1
 471 238 l 25,16,-1
 318 238 l 25,17,-1
 319 295 l 25,18,-1
 461 295 l 25,19,-1
 445 351 l 25,20,-1
 318 351 l 25,21,-1
 318 409 l 25,22,-1
 430 409 l 25,23,-1
 341 698 l 25,1,-1
EndSplineSet
Validated: 1
EndChar
StartChar: copyright
Encoding: 169 169 48
Width: 1024
VWidth: 0
Flags: HMW
LayerCount: 2
Back
SplineSet
464.913085938 1139.86328125 m 1
 464.602539062 1139.86328125 l 1025
515.774414062 1139.86328125 m 1
 515.463867188 1139.86328125 l 1025
EndSplineSet
Fore
SplineSet
508.940429688 44.2197265625 m 0
 509.120117188 -48.5595703125 l 1
 680.940429688 -42.7802734375 865.005004115 103.951903025 870.840820312 326.799804688 c 0
 877.605419669 585.114446745 658.940429688 725.219726562 509 726 c 1
 508.940429688 636.219726562 l 1
 639.581054688 635.139648438 785.90234375 513.166015625 781.940429688 332.219726562 c 0
 778.575195312 178.534179688 654.940429688 51.2197265625 508.940429688 44.2197265625 c 0
508.645507812 200.336914062 m 17
 508.645507812 200.336914062 530.01171875 205.891601562 536.737304688 220.89453125 c 0
 540.31640625 228.8828125 540.080078125 235.827148438 540.080078125 244.916015625 c 26
 540.080078125 264.392578125 l 25
 632.37890625 231.282226562 l 17
 632.37890625 169.26953125 570.65234375 108.797851562 508.645507812 108.797851562 c 9
 508.645507812 200.336914062 l 17
508.645507812 480.365234375 m 9
 508.645507812 571.90625 l 17
 570.65234375 571.90625 632.37890625 511.43359375 632.37890625 449.419921875 c 9
 540.080078125 416.309570312 l 25
 540.080078125 435.787109375 l 26
 540.080078125 444.875976562 540.31640625 451.821289062 536.737304688 459.807617188 c 0
 530.01171875 474.810546875 508.645507812 480.365234375 508.645507812 480.365234375 c 9
466.059570312 45.2197265625 m 0
 466.879882812 -47.5595703125 l 1
 288.059570312 -45.7802734375 108.678570632 123.9636603 107.159179688 327.799804688 c 0
 105.068932113 608.220066461 341.059570312 728.219726562 474 727 c 1
 474.059570312 636.219726562 l 1
 343.418945312 635.139648438 196.629882812 518.208984375 197.059570312 333.219726562 c 0
 197.416546537 179.534160284 320.059570312 52.2197265625 466.059570312 45.2197265625 c 0
EndSplineSet
Refer: 13 -1 N -0.668825 0 0 0.649218 653.446 114.424 2
Validated: 53
EndChar
StartChar: HKD
Encoding: 272 22291 104
Width: 1024
VWidth: 0
Flags: MW
LayerCount: 2
Back
Fore
SplineSet
301.84765625 698 m 5
 343.547851562 698 l 5
 317.748046875 610.700195312 l 5
 344.748046875 488 l 29
 303.34765625 488 l 29
 275.748046875 610.700195312 l 5
 301.84765625 698 l 5
150.299804688 614 m 1
 150.299804688 572.600585938 l 1
 136.5 572.600585938 l 1
 136.5 614 l 1
 150.299804688 614 l 1
120 614 m 1
 120 572.600585938 l 1
 106.200195312 572.600585938 l 1
 106.200195312 614 l 1
 120 614 l 1
616 757 m 29
 540 757 l 29
 540 699 l 21
 449 684 376 605 376 506 c 4
 376 399 440 348 541 312 c 13
 541 136 l 21
 510.533203125 147.404296875 492.606445312 168.922851562 492 214 c 13
 353 187 l 21
 363 139 375 101 413 64 c 28
 453 24 491 11 541 0 c 13
 541 -53 l 29
 616 -53 l 29
 616 0 l 21
 733 19 801 123 801 224 c 4
 801 331 720 391 616 425 c 13
 616 562 l 21
 639.227539062 542.166015625 642.776367188 532.34375 645 502 c 13
 781 528 l 21
 780 561 760 609 724 646 c 28
 691 680 657 692 616 698 c 13
 616 757 l 29
EndSplineSet
Refer: 2 -1 N 0.3 0 0 0.3 204.048 488 2
Refer: 2 -1 N 0.3 0 0 0.3 55.8 487.7 2
Refer: 2 -1 N 0.3 0 0 0.3 132 487.7 2
Validated: 8912901
EndChar
